Coordinates
version=1
nRows=14
nColumns=63
inDegrees=yes

Units are S.I. units (second, meters, Newtons, ...)
If the header above contains a line with 'inDegrees', this indicates whether rotational values are in degrees (yes) or radians (no).

endheader
time	pelvis_tilt	pelvis_list	pelvis_rotation	pelvis_tx	pelvis_ty	pelvis_tz	hip_flexion_r	hip_adduction_r	hip_rotation_r	knee_angle_r	knee_angle_r_beta	ankle_angle_r	subtalar_angle_r	mtp_angle_r	hip_flexion_l	hip_adduction_l	hip_rotation_l	knee_angle_l	knee_angle_l_beta	ankle_angle_l	subtalar_angle_l	mtp_angle_l	L5_S1_Flex_Ext	L5_S1_Lat_Bending	L5_S1_axial_rotation	L4_L5_Flex_Ext	L4_L5_Lat_Bending	L4_L5_axial_rotation	L3_L4_Flex_Ext	L3_L4_Lat_Bending	L3_L4_axial_rotation	L2_L3_Flex_Ext	L2_L3_Lat_Bending	L2_L3_axial_rotation	L1_L2_Flex_Ext	L1_L2_Lat_Bending	L1_L2_axial_rotation	L1_T12_Flex_Ext	L1_T12_Lat_Bending	L1_T12_axial_rotation	Abs_r3	Abs_r2	Abs_r1	Abs_t1	Abs_t2	neck_flexion	neck_bending	neck_rotation	arm_flex_r	arm_add_r	arm_rot_r	elbow_flex_r	pro_sup_r	wrist_flex_r	wrist_dev_r	arm_flex_l	arm_add_l	arm_rot_l	elbow_flex_l	pro_sup_l	wrist_flex_l	wrist_dev_l
2.508475	-2.405470	-6.857408	89.710540	0.158720	0.941216	0.745352	7.547807	-3.069379	-11.017223	12.596691	0.219854	23.710097	18.610650	0.000000	8.279741	0.876599	-4.500872	12.998887	0.226873	21.456997	0.280039	0.000000	-0.346805	0.033339	0.864749	-0.644052	0.044340	0.918795	-0.569766	0.081060	0.918795	-0.396363	0.081060	0.756655	-0.322043	0.067984	0.702608	-0.198164	0.051642	0.648561	-2.477194	0.377133	4.809472	0.000000	0.000000	10.029947	3.571032	2.987973	48.505842	-2.431590	130.748180	0.130606	1.532838	-68.354084	-11.531431	49.361366	5.323932	135.820479	0.134339	1.022100	-69.618565	-11.759848
2.525424	-2.393305	-6.933842	89.918921	0.158677	0.941253	0.745520	7.615842	-3.070742	-11.267474	12.609971	0.220086	23.685238	18.599185	0.000000	8.451827	0.834521	-4.750962	13.095036	0.228551	21.480163	0.828370	0.000000	-0.349294	0.032292	0.808710	-0.648673	0.042949	0.859255	-0.573855	0.078516	0.859255	-0.399208	0.078516	0.707622	-0.324354	0.065851	0.657077	-0.199586	0.050021	0.606533	-2.494970	0.365297	4.497805	0.000000	0.000000	9.748388	3.631026	3.105199	49.045605	-2.475807	129.692692	0.140877	1.525620	-67.389371	-12.672303	49.994203	5.301068	135.254678	0.135246	0.984586	-69.591714	-11.760898
2.542373	-2.391942	-7.030768	90.104091	0.158701	0.941137	0.745471	7.690164	-3.083014	-11.551279	12.625001	0.220348	23.664127	18.585729	0.000000	8.617024	0.804342	-4.951013	13.178556	0.230009	21.453925	1.221848	0.000000	-0.349717	0.029360	0.758284	-0.649460	0.039049	0.805677	-0.574550	0.071386	0.805677	-0.399692	0.071386	0.663499	-0.324747	0.059871	0.616106	-0.199828	0.045478	0.568713	-2.497994	0.332124	4.217350	0.000000	0.000000	9.556269	3.729650	3.229409	49.417434	-2.502476	128.838574	0.145355	1.494631	-66.595349	-13.647781	50.546389	5.297964	134.908303	0.135940	0.973639	-69.563474	-11.245782
2.559322	-2.420580	-7.146666	90.233973	0.158851	0.940886	0.745204	7.772456	-3.119302	-11.813320	12.640858	0.220625	23.651776	18.569332	0.000000	8.759270	0.823761	-4.912083	13.223095	0.230787	21.261055	1.125307	0.000000	-0.347693	0.021826	0.720835	-0.645702	0.029029	0.765887	-0.571226	0.053068	0.765887	-0.397379	0.053068	0.630731	-0.322868	0.044508	0.585679	-0.198672	0.033809	0.540626	-2.483540	0.246900	4.009069	0.000000	0.000000	9.432900	3.839142	3.256620	49.640775	-2.518350	128.148266	0.149372	1.472747	-65.943989	-14.416312	50.993209	5.294900	134.615662	0.136287	0.965403	-69.538762	-10.656030
2.576271	-2.489985	-7.270774	90.317263	0.159143	0.940557	0.744780	7.858652	-3.190898	-12.052851	12.667031	0.221081	23.642557	18.552121	0.000000	8.876175	0.898373	-4.677201	13.237937	0.231046	20.923561	0.630500	0.000000	-0.345764	0.008288	0.694656	-0.642119	0.011023	0.738072	-0.568056	0.020152	0.738072	-0.395174	0.020152	0.607824	-0.321077	0.016901	0.564408	-0.197570	0.012839	0.520992	-2.469759	0.093759	3.863470	0.000000	0.000000	9.361587	3.925507	3.123549	49.753191	-2.522606	127.566958	0.153074	1.468112	-65.395500	-15.035884	51.332316	5.262744	134.350681	0.136208	0.959651	-69.518736	-10.195468
2.593220	-2.582913	-7.404874	90.349598	0.159568	0.940191	0.744240	7.952853	-3.278045	-12.248964	12.697721	0.221617	23.623243	18.534358	0.000000	8.977548	1.009050	-4.261298	13.229621	0.230900	20.481773	-0.217063	0.000000	-0.344220	-0.008226	0.681538	-0.639251	-0.010941	0.724134	-0.565519	-0.020001	0.724134	-0.393409	-0.020001	0.596346	-0.319643	-0.016774	0.553750	-0.196687	-0.012742	0.511154	-2.458730	-0.093054	3.790511	0.000000	0.000000	9.317555	3.979558	2.862403	49.787362	-2.531769	127.133631	0.156322	1.448836	-64.996821	-15.536211	51.562741	5.184759	134.184407	0.135651	0.953203	-69.503889	-9.957988
2.610169	-2.696101	-7.549596	90.333647	0.160099	0.939832	0.743635	8.058263	-3.377892	-12.403293	12.727281	0.222133	23.585983	18.518274	0.000000	9.064581	1.154113	-3.671669	13.181379	0.230058	19.949066	-1.390049	0.000000	-0.343743	-0.027261	0.680907	-0.638365	-0.036258	0.723464	-0.564735	-0.066283	0.723464	-0.392864	-0.066283	0.595794	-0.319200	-0.055591	0.553237	-0.196415	-0.042228	0.510680	-2.455320	-0.308385	3.787001	0.000000	0.000000	9.289908	4.008342	2.469495	49.780280	-2.547674	126.813114	0.159038	1.468252	-64.721831	-15.842931	51.699791	5.056364	134.151293	0.134681	0.969348	-69.494821	-9.916312
2.627119	-2.822192	-7.701552	90.264327	0.160690	0.939499	0.743018	8.182588	-3.486717	-12.507611	12.770046	0.222879	23.541910	18.502409	0.000000	9.148441	1.325780	-2.936181	13.111036	0.228831	19.378592	-2.834256	0.000000	-0.345730	-0.046819	0.693168	-0.642054	-0.062269	0.736491	-0.567999	-0.113836	0.736491	-0.395134	-0.113836	0.606522	-0.321044	-0.095474	0.563199	-0.197550	-0.072523	0.519876	-2.469511	-0.529628	3.855191	0.000000	0.000000	9.276699	3.992380	2.007507	49.760891	-2.592370	126.733044	0.161025	1.499637	-64.581166	-15.948043	51.765389	4.873320	134.311839	0.133283	1.002673	-69.492003	-10.088569
2.644068	-2.950786	-7.869713	90.172412	0.161309	0.939197	0.742437	8.330862	-3.595608	-12.598149	12.818998	0.223734	23.492256	18.487686	0.000000	9.257088	1.493666	-2.231566	13.045221	0.227682	18.853668	-4.251151	0.000000	-0.349597	-0.065923	0.713721	-0.649236	-0.087677	0.758328	-0.574352	-0.160284	0.758328	-0.399554	-0.160284	0.624506	-0.324635	-0.134429	0.579898	-0.199759	-0.102114	0.535291	-2.497133	-0.745730	3.969501	0.000000	0.000000	9.309750	3.879673	1.474698	49.733347	-2.674165	126.752774	0.162338	1.518397	-64.558696	-16.043908	51.777879	4.635592	134.639239	0.131551	1.025743	-69.493171	-10.617726
2.661017	-3.085985	-8.049171	90.037845	0.161987	0.938945	0.741922	8.501374	-3.706111	-12.652848	12.870955	0.224641	23.432059	18.471239	0.000000	9.377060	1.669836	-1.464944	12.960302	0.226200	18.337492	-5.757520	0.000000	-0.356242	-0.085222	0.745539	-0.661578	-0.113345	0.792135	-0.585271	-0.207209	0.792135	-0.407149	-0.207209	0.652346	-0.330807	-0.173785	0.605750	-0.203557	-0.132009	0.559154	-2.544603	-0.964048	4.146463	0.000000	0.000000	9.362466	3.714338	0.923522	49.705708	-2.782198	126.810995	0.162881	1.527015	-64.639119	-16.068310	51.764819	4.356803	135.130119	0.129676	1.055937	-69.500961	-11.337164
2.677966	-3.229093	-8.238492	89.878601	0.162699	0.938767	0.741527	8.695799	-3.822220	-12.695390	12.930735	0.225684	23.335830	18.448908	0.000000	9.518235	1.834747	-0.843825	12.875196	0.224715	17.873082	-7.053800	0.000000	-0.366495	-0.105207	0.784002	-0.680617	-0.139925	0.833002	-0.602114	-0.255799	0.833002	-0.418867	-0.255799	0.686002	-0.340327	-0.214537	0.637002	-0.209415	-0.162965	0.588002	-2.617834	-1.190118	4.360384	0.000000	0.000000	9.442281	3.488104	0.331932	49.691299	-2.921178	126.956473	0.162379	1.592083	-64.835010	-15.977817	51.738832	4.040787	135.621142	0.127950	1.099199	-69.511971	-12.365072
2.694915	-3.362277	-8.447683	89.725518	0.163378	0.938647	0.741283	8.923710	-3.932456	-12.744313	13.004561	0.226972	23.199114	18.425742	0.000000	9.697063	1.987309	-0.231515	12.800309	0.223408	17.406783	-8.288978	0.000000	-0.378244	-0.122583	0.820928	-0.702437	-0.163036	0.872236	-0.621417	-0.298049	0.872236	-0.432295	-0.298049	0.718312	-0.351237	-0.249972	0.667004	-0.216128	-0.189882	0.615696	-2.701757	-1.386688	4.565755	0.000000	0.000000	9.556966	3.224932	-0.175427	49.703186	-3.094715	127.231785	0.160741	1.656800	-65.142407	-15.882443	51.702991	3.696507	136.088251	0.126190	1.145895	-69.527181	-13.556496
2.711864	-3.489145	-8.655768	89.544332	0.164056	0.938595	0.741183	9.160911	-4.031896	-12.757917	13.078797	0.228268	23.026555	18.392220	0.000000	9.875461	2.128272	0.349671	12.716274	0.221941	16.916621	-9.479101	0.000000	-0.394015	-0.137950	0.865683	-0.731725	-0.183474	0.919788	-0.647327	-0.335412	0.919788	-0.450319	-0.335412	0.757473	-0.365882	-0.281308	0.703367	-0.225140	-0.213685	0.649262	-2.814408	-1.560520	4.814669	0.000000	0.000000	9.682864	2.901663	-0.677782	49.752666	-3.313970	127.554905	0.157921	1.749176	-65.564445	-15.787112	51.671052	3.338733	136.593263	0.124358	1.185741	-69.544972	-14.893254
2.728814	-3.591299	-8.875323	89.370866	0.164655	0.938589	0.741261	9.423157	-4.111774	-12.770815	13.164158	0.229758	22.808510	18.358889	0.000000	10.077215	2.242127	0.874822	12.648710	0.220762	16.414709	-10.546333	0.000000	-0.411607	-0.148397	0.906739	-0.764396	-0.197367	0.963410	-0.676230	-0.360811	0.963410	-0.470426	-0.360811	0.793397	-0.382219	-0.302610	0.736725	-0.235192	-0.229866	0.680054	-2.940070	-1.678692	5.043010	0.000000	0.000000	9.832826	2.577887	-1.073506	49.856369	-3.564162	128.051909	0.153840	1.844390	-66.096944	-15.647161	51.646554	2.969288	137.050338	0.122410	1.216826	-69.566061	-16.297690
